<svg width="20" height="20" viewBox="0 0 20 20" fill="none" xmlns="http://www.w3.org/2000/svg">
<path d="M17.316 6.24601C17.3234 6.40867 17.327 6.57134 17.327 6.73401C17.327 11.724 13.53 17.476 6.58705 17.476C4.45405 17.476 2.47105 16.851 0.800049 15.779C1.78842 15.8984 2.79062 15.8219 3.74942 15.5538C4.70822 15.2858 5.60483 14.8316 6.38805 14.217C5.6005 14.202 4.83733 13.9413 4.20516 13.4714C3.573 13.0015 3.10342 12.3458 2.86205 11.596C3.42812 11.7018 4.01068 11.6796 4.56705 11.531C3.71275 11.3576 2.94464 10.8942 2.39282 10.2194C1.841 9.54455 1.53938 8.69973 1.53905 7.82801V7.78101C2.06374 8.0714 2.64971 8.23348 3.24905 8.25401C2.44892 7.72059 1.88253 6.90193 1.66547 5.96511C1.44841 5.0283 1.59705 4.04396 2.08105 3.21301C3.02901 4.37928 4.21161 5.33319 5.5521 6.01282C6.89259 6.69246 8.36101 7.08263 9.86205 7.15801C9.79699 6.87564 9.76445 6.58677 9.76505 6.29701C9.76505 5.80145 9.86267 5.31074 10.0523 4.85291C10.242 4.39508 10.52 3.97911 10.8705 3.62874C11.2209 3.27837 11.637 3.00047 12.0949 2.81092C12.5528 2.62137 13.0435 2.52388 13.539 2.52401C14.0555 2.52316 14.5666 2.62845 15.0407 2.83332C15.5148 3.0382 15.9417 3.3383 16.295 3.71501C17.1402 3.54774 17.9507 3.238 18.692 2.79901C18.4092 3.67273 17.8195 4.41446 17.032 4.88701C17.7802 4.79757 18.5108 4.59738 19.2001 4.29301C18.6943 5.05176 18.0561 5.7133 17.316 6.24601Z" fill="#FFFFFD"/>
</svg>
